<?xml version="1.0" encoding="UTF-8" standalone="no"?>
<svg xmlns="http://www.w3.org/2000/svg"
     version="1.0"
     viewBox="0 0 469 452">
    <g transform="translate(0 452) scale(.12857 -.12857)" fill="#358CBA">
        <path d="m1165 2063c-612-1436-691-1615-766-1724-88-130-152-173-303-200l-66-12v-44-43h530 530v45 45h-39c-53 0-177 24-229 45-49 20-95 74-110 129-22 77 0 147 176 558l126 298h651 651l109-262c169-408 196-498 181-600-5-33-17-55-46-86-46-48-107-70-217-79l-73-6v-43-44h665 665v45 45h-36c-50 0-148 27-205 56-142 72-213 190-453 764-75 179-342 818-594 1420l-459 1095-44 3-44 2-600-1407zm794-47c155-368 280-671 278-673s-260-2-573-1l-570 3 290 672c160 370 291 671 292 670s128-303 283-671z"/>
    </g>
</svg>
