<?xml version="1.0" encoding="UTF-8" standalone="no"?>
<svg xmlns="http://www.w3.org/2000/svg"
     version="1.0"
     viewBox="0 0 468 478">
    <g transform="translate(0 478) scale(.16479 -.16479)" fill="#358CBA">
        <path d="m60 2765v-75h170 170v-940-940h-170-170v-80-80h1048c1144-1 1143-1 1267-58 152-72 228-198 265-442 19-132 10-120 95-120h75l-5 28c-3 15-23 173-46 352-22 179-42 342-46 363l-6 37h-188-189v940 940h170 170v75 75h-570-570v-75-75h175 175v-940-940h-515-515v940 940h175 175v75 75h-570-570v-75z"/>
    </g>
</svg>
